<svg xmlns="http://www.w3.org/2000/svg" width="343" height="298" viewBox="0 0 343 298">
  <defs>
    <style>
      .cls-1 {
        fill: #ff9000;
        fill-rule: evenodd;
      }
    </style>
  </defs>
  <path id="Forme_1" data-name="Forme 1" class="cls-1" d="M242,91l10-25L227,77l-5-3,2-28L203,63h-5l-6-27L177,59l-4,1L158,35l-7,28-5,1L126,46V73l-3,4L97,66l10,25-1,4L77,93l17,20v6l-26,7,22,14,1,5L67,160l26,7,1,5L77,193l28-2,2,4L97,220l27-11,3,3-2,29,21-18,4,2,8,28,14-25h5l14,22,9-27h3l21,18-1-27,4-5,26,12-13-25,4-5,28,2-18-21-1-6,30-6-25-14,1-5,24-15-27-5-3-6,19-22-28,2Z"/>
</svg>
